<svg width="300" height="300" viewBox="0 0 300 300" fill="none" xmlns="http://www.w3.org/2000/svg">
<path d="M146 10.25C146 7.90279 147.903 6 150.25 6V6C152.597 6 154.5 7.90279 154.5 10.25V28.75C154.5 31.0972 152.597 33 150.25 33V33C147.903 33 146 31.0972 146 28.75V10.25Z" fill="#F2F2F2"/>
<path d="M272.25 154C269.903 154 268 152.097 268 149.75V149.75C268 147.403 269.903 145.5 272.25 145.5H290.75C293.097 145.5 295 147.403 295 149.75V149.75C295 152.097 293.097 154 290.75 154H272.25Z" fill="#F2F2F2"/>
<path d="M272.094 217.375C274.127 218.549 274.824 221.148 273.65 223.181V223.181C272.476 225.213 269.877 225.91 267.844 224.736L251.823 215.486C249.79 214.313 249.094 211.713 250.267 209.681V209.681C251.441 207.648 254.04 206.951 256.073 208.125L272.094 217.375Z" fill="#F2F2F2"/>
<path d="M222.303 269.094C223.477 271.127 222.78 273.726 220.748 274.9V274.9C218.715 276.074 216.116 275.377 214.942 273.344L205.692 257.323C204.518 255.29 205.215 252.691 207.248 251.517V251.517C209.28 250.344 211.88 251.04 213.053 253.073L222.303 269.094Z" fill="#F2F2F2"/>
<path d="M84.0532 273.094C82.8796 275.127 80.2803 275.824 78.2476 274.65V274.65C76.2148 273.476 75.5184 270.877 76.692 268.844L85.942 252.823C87.1156 250.79 89.7148 250.094 91.7476 251.267V251.267C93.7803 252.441 94.4768 255.04 93.3032 257.073L84.0532 273.094Z" fill="#F2F2F2"/>
<path d="M32.6806 225.303C30.6479 226.477 28.0486 225.78 26.875 223.748V223.748C25.7014 221.715 26.3979 219.116 28.4306 217.942L44.4521 208.692C46.4848 207.518 49.0841 208.215 50.2577 210.248V210.248C51.4313 212.28 50.7348 214.88 48.7021 216.053L32.6806 225.303Z" fill="#F2F2F2"/>
<path d="M217.875 27.6806C219.049 25.6479 221.648 24.9514 223.681 26.125V26.125C225.713 27.2986 226.41 29.8979 225.236 31.9306L215.986 47.9521C214.813 49.9848 212.213 50.6813 210.181 49.5077V49.5077C208.148 48.3341 207.451 45.7348 208.625 43.7021L217.875 27.6806Z" fill="#F2F2F2"/>
<path d="M269.319 78.125C271.352 76.9514 273.951 77.6479 275.125 79.6806V79.6806C276.299 81.7134 275.602 84.3126 273.569 85.4862L257.548 94.7362C255.515 95.9098 252.916 95.2134 251.742 93.1806V93.1806C250.569 91.1479 251.265 88.5486 253.298 87.375L269.319 78.125Z" fill="#F2F2F2"/>
<path d="M10.25 154C7.90279 154 6 152.097 6 149.75V149.75C6 147.403 7.90279 145.5 10.25 145.5H28.75C31.0972 145.5 33 147.403 33 149.75V149.75C33 152.097 31.0972 154 28.75 154H10.25Z" fill="#F2F2F2"/>
<path d="M26.6806 85.0532C24.6479 83.8796 23.9514 81.2803 25.125 79.2476V79.2476C26.2986 77.2148 28.8979 76.5184 30.9306 77.692L46.9521 86.942C48.9848 88.1156 49.6813 90.7148 48.5077 92.7476V92.7476C47.3341 94.7803 44.7348 95.4768 42.7021 94.3032L26.6806 85.0532Z" fill="#F2F2F2"/>
<path d="M76.125 31.6806C74.9514 29.6479 75.6479 27.0486 77.6806 25.875V25.875C79.7134 24.7014 82.3126 25.3979 83.4862 27.4306L92.7362 43.4521C93.9098 45.4848 93.2134 48.0841 91.1806 49.2577V49.2577C89.1479 50.4313 86.5486 49.7348 85.375 47.7021L76.125 31.6806Z" fill="#F2F2F2"/>
<rect x="146" y="268" width="8.5" height="27" rx="4.25" fill="#F2F2F2"/>
</svg>
