<svg width="332" height="140" viewBox="0 0 332 140" fill="none" xmlns="http://www.w3.org/2000/svg">
<path d="M27.2667 54.7295C32.6832 54.7295 37.2362 56.692 41.0827 60.6955C44.9292 64.699 46.8132 69.566 46.8132 75.375C46.8132 81.1055 44.9292 86.051 41.0827 90.0545C37.2362 94.058 32.6832 96.0205 27.2667 96.0205C21.3007 96.0205 16.7477 93.8225 13.5292 89.348V95H5.05121V40.05H13.5292V61.3235C16.7477 56.9275 21.3007 54.7295 27.2667 54.7295ZM17.0617 84.4025C19.4167 86.7575 22.3997 87.935 25.9322 87.935C29.4647 87.935 32.4477 86.7575 34.8027 84.4025C37.1577 81.969 38.3352 78.986 38.3352 75.375C38.3352 71.764 37.1577 68.781 34.8027 66.426C32.4477 63.9925 29.4647 62.815 25.9322 62.815C22.3997 62.815 19.4167 63.9925 17.0617 66.426C14.7067 68.781 13.5292 71.764 13.5292 75.375C13.5292 78.986 14.7067 81.969 17.0617 84.4025ZM62.975 55.75V62.344C65.0945 57.477 69.1765 55.0435 75.064 55.0435V64.228C71.8455 63.9925 69.0195 64.7775 66.586 66.583C64.1525 68.31 62.975 71.2145 62.975 75.218V95H54.497V55.75H62.975ZM119.244 78.986H88.0006C89.2566 84.952 94.0451 88.249 100.561 88.249C105.035 88.249 108.411 86.6005 110.687 83.382L117.674 87.464C113.827 93.1945 108.097 96.0205 100.482 96.0205C94.1236 96.0205 88.9426 94.058 85.0176 90.2115C81.0926 86.2865 79.1301 81.341 79.1301 75.375C79.1301 69.4875 81.0926 64.6205 84.9391 60.6955C88.7856 56.692 93.8096 54.7295 99.8541 54.7295C105.585 54.7295 110.295 56.7705 113.984 60.774C117.674 64.7775 119.558 69.723 119.558 75.4535C119.558 76.317 119.479 77.4945 119.244 78.986ZM87.9221 72.078H111.001C109.824 65.7195 105.349 62.4225 99.7756 62.4225C93.4956 62.4225 89.0996 66.112 87.9221 72.078ZM164.933 78.986H133.69C134.946 84.952 139.735 88.249 146.25 88.249C150.725 88.249 154.1 86.6005 156.377 83.382L163.363 87.464C159.517 93.1945 153.786 96.0205 146.172 96.0205C139.813 96.0205 134.632 94.058 130.707 90.2115C126.782 86.2865 124.82 81.341 124.82 75.375C124.82 69.4875 126.782 64.6205 130.629 60.6955C134.475 56.692 139.499 54.7295 145.544 54.7295C151.274 54.7295 155.984 56.7705 159.674 60.774C163.363 64.7775 165.247 69.723 165.247 75.4535C165.247 76.317 165.169 77.4945 164.933 78.986ZM133.612 72.078H156.691C155.513 65.7195 151.039 62.4225 145.465 62.4225C139.185 62.4225 134.789 66.112 133.612 72.078ZM199.131 61.402L180.84 86.993H199.916V95H169.301V89.348L187.67 63.757H170.086V55.75H199.131V61.402ZM245.733 78.986H214.49C215.746 84.952 220.534 88.249 227.05 88.249C231.524 88.249 234.9 86.6005 237.176 83.382L244.163 87.464C240.316 93.1945 234.586 96.0205 226.971 96.0205C220.613 96.0205 215.432 94.058 211.507 90.2115C207.582 86.2865 205.619 81.341 205.619 75.375C205.619 69.4875 207.582 64.6205 211.428 60.6955C215.275 56.692 220.299 54.7295 226.343 54.7295C232.074 54.7295 236.784 56.7705 240.473 60.774C244.163 64.7775 246.047 69.723 246.047 75.4535C246.047 76.317 245.968 77.4945 245.733 78.986ZM214.411 72.078H237.49C236.313 65.7195 231.838 62.4225 226.265 62.4225C219.985 62.4225 215.589 66.112 214.411 72.078ZM272.033 96.0205C266.302 96.0205 261.357 94.058 257.353 90.0545C253.35 86.051 251.309 81.184 251.309 75.375C251.309 69.566 253.35 64.699 257.353 60.6955C261.357 56.692 266.302 54.7295 272.033 54.7295C277.842 54.7295 282.709 56.692 286.712 60.6955C290.716 64.699 292.757 69.566 292.757 75.375C292.757 81.184 290.716 86.051 286.712 90.0545C282.709 94.058 277.842 96.0205 272.033 96.0205ZM263.319 84.2455C265.674 86.6005 268.579 87.778 272.033 87.778C275.487 87.778 278.391 86.6005 280.746 84.2455C283.101 81.8905 284.279 78.9075 284.279 75.375C284.279 71.8425 283.101 68.8595 280.746 66.5045C278.391 64.1495 275.487 62.972 272.033 62.972C268.579 62.972 265.674 64.1495 263.319 66.5045C260.964 68.8595 259.787 71.8425 259.787 75.375C259.787 78.9075 260.964 81.8905 263.319 84.2455ZM307.271 66.583C307.271 69.1735 310.568 70.508 314.65 71.6855C320.694 73.02 328.544 75.532 328.387 83.9315C328.387 87.6995 326.896 90.6825 323.991 92.802C321.087 94.9215 317.476 96.0205 313.08 96.0205C305.308 96.0205 299.578 92.5665 297.066 86.836L304.366 82.597C305.701 86.365 308.605 88.249 313.08 88.249C317.554 88.249 319.752 86.7575 319.752 83.853C319.752 81.341 316.455 79.8495 312.295 78.829C306.407 77.3375 298.479 74.9825 298.636 66.74C298.636 63.129 299.97 60.2245 302.718 58.0265C305.465 55.8285 308.919 54.7295 313.001 54.7295C319.517 54.7295 324.776 57.791 327.524 62.8935L320.38 66.897C319.046 63.914 316.534 62.4225 313.001 62.4225C309.783 62.4225 307.271 63.8355 307.271 66.583Z" fill="white"/>
</svg>
